<svg width="707" height="80" viewBox="0 0 707 80" fill="none" xmlns="http://www.w3.org/2000/svg">
    <g clip-path="url(#clip0)">
        <path d="M45.6094 62L28 62L28 17.9113C28 16.7571 28.107 15.6341 28.3209 14.5424C28.3523 14.3864 28.3901 14.2304 28.4215 14.0745C28.9626 11.6164 30.0133 9.35177 31.4603 7.38034C34.7506 2.91345 40.0604 5.27179e-07 46.0498 7.88981e-07L107 3.4532e-06C101.917 8.85893 92.3287 14.5424 81.8159 14.5424L52.9765 14.5424C47.2829 14.5424 42.6588 19.1272 42.6588 24.7738L42.6588 54.8436C42.6588 57.6267 43.7849 60.1534 45.6094 62Z" fill="#1F2732"/>
        <path d="M107 80L73 80C77.6649 76.7669 81.0725 71.711 82.1853 65.7214C82.2293 65.4831 82.2733 65.2447 82.3047 65C92.628 65.1675 101.996 70.9962 107 80" fill="#1F2732"/>
        <path d="M60.9377 80L-2.71011e-06 80C5.08338 71.1464 14.6714 65.4624 25.1841 65.4624L54.0235 65.4624C59.7108 65.4624 64.3412 60.8703 64.3412 55.2293L64.3412 25.1565C64.3412 22.3738 63.2151 19.8468 61.3906 18L79 18L79 62.0926C79 63.2475 78.8931 64.3705 78.6792 65.4624C77.0875 73.7295 69.7392 80 60.9377 80Z" fill="#1976d2"/>
        <path d="M24.6861 15C14.3667 14.8326 5.00258 9.00644 0 0L34 1.48619e-06C31.9386 1.42919 30.1035 3.23176 28.6015 5.34335C26.8103 7.85408 25.5723 10.6674 24.9249 13.6931L24.8998 13.7955C24.8684 13.9564 24.837 14.1174 24.8055 14.2725C24.7615 14.5107 24.7176 14.7554 24.6861 15" fill="#1976d2"/>
        <path d="M132.5 21C132.5 17.6 132.033 15.1 131.1 13.5C130.167 11.8333 128.3 11 125.5 11H124.5V8H168.6C174.267 8 177.1 10.6667 177.1 16V24.5H174.1C174.1 20.3667 173.033 17.3333 170.9 15.4C168.833 13.4667 165.733 12.5 161.6 12.5H145.5V37.5H171.5V42H145.5V69.5H162.6C166.4 69.5 169.567 68.6667 172.1 67C174.633 65.2667 176.733 62.3 178.4 58.1L181.1 59.1L178.2 67C177.333 69.4 176.3 71.1667 175.1 72.3C173.9 73.4333 172.033 74 169.5 74H132.5V21ZM206.161 12.5H199.061C195.328 12.5 192.461 13.4333 190.461 15.3C188.528 17.1667 187.561 20.2333 187.561 24.5H184.561V16C184.561 10.6667 187.394 8 193.061 8H240.061V12.5H219.161V74H206.161V12.5ZM249.98 21C249.98 17.6 249.514 15.1 248.58 13.5C247.647 11.8333 245.78 11 242.98 11H241.98V8H253.98C256.38 8 258.214 8.4 259.48 9.2C260.747 10 261.647 11.3333 262.18 13.2C262.714 15 262.98 17.6 262.98 21V37.5H289.98V8H302.98V61C302.98 64.4 303.447 66.9333 304.38 68.6C305.314 70.2 307.18 71 309.98 71H310.98V74H298.98C296.58 74 294.747 73.6333 293.48 72.9C292.214 72.1 291.314 70.8 290.78 69C290.247 67.1333 289.98 64.4667 289.98 61V42H262.98V74H249.98V21ZM335.653 12.5H328.553C324.82 12.5 321.953 13.4333 319.953 15.3C318.02 17.1667 317.053 20.2333 317.053 24.5H314.053V16C314.053 10.6667 316.886 8 322.553 8H369.553V12.5H348.653V74H335.653V12.5ZM386.873 74C384.473 74 382.639 73.6333 381.373 72.9C380.106 72.1 379.206 70.8 378.673 69C378.139 67.1333 377.873 64.4667 377.873 61V8H390.873V61C390.873 64.4 391.339 66.9333 392.273 68.6C393.206 70.2 395.073 71 397.873 71H398.873V74H386.873ZM436.458 76C429.591 76 423.658 74.5333 418.658 71.6C413.724 68.6 409.958 64.5333 407.358 59.4C404.758 54.2667 403.458 48.4667 403.458 42C403.458 35.3333 404.891 29.2667 407.758 23.8C410.624 18.2667 414.558 13.9333 419.558 10.8C424.624 7.6 430.258 6 436.458 6C442.324 6 447.224 6.76667 451.158 8.3C455.091 9.76666 458.091 11.7 460.158 14.1C461.358 15.6333 462.091 17.5333 462.358 19.8C462.624 22.0667 462.758 25.2333 462.758 29.3H459.758C458.491 23.1667 456.158 18.5 452.758 15.3C449.358 12.1 444.924 10.5 439.458 10.5C432.658 10.5 427.291 12.9 423.358 17.7C419.424 22.5 417.458 30.6 417.458 42C417.458 50.4667 419.258 57.5 422.858 63.1C426.458 68.7 431.991 71.5 439.458 71.5C444.124 71.5 448.391 70.2667 452.258 67.8C456.191 65.3333 459.358 61.8 461.758 57.2L465.258 59.9C462.058 65.5 458.191 69.6 453.658 72.2C449.124 74.7333 443.391 76 436.458 76ZM530.729 75C526.529 75 522.496 74.1667 518.629 72.5C514.829 70.7667 510.729 67.6 506.329 63L490.229 46.2V74H477.229L477.129 21C477.129 17.6 476.662 15.1 475.729 13.5C474.796 11.8333 472.929 11 470.129 11H469.129V8H481.129C483.462 8 485.262 8.4 486.529 9.2C487.862 10 488.796 11.3333 489.329 13.2C489.929 15.0667 490.229 17.6667 490.229 21V40L507.529 18.5C509.996 15.3 512.629 12.7667 515.429 10.9C518.296 8.96666 521.562 8 525.229 8H532.229V11.5C528.096 11.5 524.529 12.0333 521.529 13.1C518.596 14.1 516.062 15.9333 513.929 18.6L499.029 37L522.129 61C524.596 63.7333 527.362 66.1333 530.429 68.2C533.562 70.2 536.096 71.3333 538.029 71.6V74C536.029 74.6667 533.596 75 530.729 75ZM546.465 21C546.465 17.6 545.998 15.1 545.065 13.5C544.132 11.8333 542.265 11 539.465 11H538.465V8H582.565C588.232 8 591.065 10.6667 591.065 16V24.5H588.065C588.065 20.3667 586.998 17.3333 584.865 15.4C582.798 13.4667 579.698 12.5 575.565 12.5H559.465V37.5H585.465V42H559.465V69.5H576.565C580.365 69.5 583.532 68.6667 586.065 67C588.598 65.2667 590.698 62.3 592.365 58.1L595.065 59.1L592.165 67C591.298 69.4 590.265 71.1667 589.065 72.3C587.865 73.4333 585.998 74 583.465 74H546.465V21ZM620.126 12.5H613.026C609.292 12.5 606.426 13.4333 604.426 15.3C602.492 17.1667 601.526 20.2333 601.526 24.5H598.526V16C598.526 10.6667 601.359 8 607.026 8H654.026V12.5H633.126V74H620.126V12.5ZM681.745 75.7C678.012 75.7 674.412 75.2 670.945 74.2C667.479 73.2667 664.645 71.9 662.445 70.1C660.245 68.2333 659.145 66.1 659.145 63.7V52H661.945C662.945 58.8 665.045 63.7 668.245 66.7C671.445 69.7 675.912 71.2 681.645 71.2C685.512 71.2 688.579 70.3667 690.845 68.7C693.112 67.0333 694.245 64.6333 694.245 61.5C694.245 58.8333 693.412 56.5667 691.745 54.7C690.079 52.8333 687.479 50.8 683.945 48.6L671.645 41.2C667.179 38.6 663.979 35.9 662.045 33.1C660.179 30.3 659.245 27.0333 659.245 23.3C659.245 18.0333 661.245 13.8667 665.245 10.8C669.312 7.73333 674.779 6.2 681.645 6.2C685.379 6.2 688.979 6.7 692.445 7.7C695.912 8.63333 698.745 10.0333 700.945 11.9C703.145 13.7 704.245 15.8 704.245 18.2V29.9H701.445C700.312 23.1 698.212 18.2 695.145 15.2C692.079 12.2 687.945 10.7 682.745 10.7C679.145 10.7 676.279 11.5667 674.145 13.3C672.079 15.0333 671.045 17.4 671.045 20.4C671.045 23 671.845 25.1667 673.445 26.9C675.112 28.5667 677.779 30.4667 681.445 32.6L693.745 39.9C698.412 42.6333 701.745 45.3 703.745 47.9C705.812 50.4333 706.845 53.5 706.845 57.1C706.845 62.9 704.645 67.4667 700.245 70.8C695.912 74.0667 689.745 75.7 681.745 75.7Z" fill="#1F2732"/>
    </g>
    <defs>
        <clipPath id="clip0">
            <rect width="707" height="80" fill="white"/>
        </clipPath>
    </defs>
</svg>
