<svg width="697" height="112" viewBox="0 0 697 112" fill="none" xmlns="http://www.w3.org/2000/svg">
<path d="M62 63.3906V81H17.9113C16.7571 81 15.6341 80.893 14.5424 80.6791C14.3864 80.6477 14.2304 80.6099 14.0745 80.5785C11.6164 80.0374 9.35177 78.9867 7.38034 77.5397C2.91345 74.2494 0 68.9396 0 62.9502V2C8.85892 7.08339 14.5424 16.6713 14.5424 27.1841V56.0235C14.5424 61.7171 19.1272 66.3412 24.7738 66.3412H54.8436C57.6267 66.3412 60.1534 65.2151 62 63.3906Z" fill="#1F2732"/>
<path d="M80 2V36C76.7669 31.3351 71.711 27.9275 65.7214 26.8147C65.4831 26.7707 65.2447 26.7267 65 26.6953C65.1675 16.372 70.9962 7.00444 80 2" fill="#1F2732"/>
<path d="M80 48.0623V109C71.1464 103.917 65.4624 94.3286 65.4624 83.8159V54.9765C65.4624 49.2892 60.8703 44.6588 55.2293 44.6588H25.1565C22.3738 44.6588 19.8468 45.7849 18 47.6094V30H62.0926C63.2475 30 64.3705 30.1069 65.4624 30.3208C73.7295 31.9125 80 39.2608 80 48.0623Z" fill="#F25221"/>
<path d="M15 84.3139C14.8326 94.6333 9.00644 103.997 0 109V75C1.42918 77.0614 3.23176 78.8965 5.34335 80.3985C7.85408 82.1897 10.6674 83.4277 13.6931 84.0751L13.7955 84.1002C13.9564 84.1316 14.1174 84.163 14.2725 84.1945C14.5107 84.2385 14.7554 84.2824 15 84.3139" fill="#F25221"/>
<path d="M117.5 37C117.5 33.6 117.033 31.1 116.1 29.5C115.167 27.8333 113.3 27 110.5 27H109.5V24H153.6C159.267 24 162.1 26.6667 162.1 32V40.5H159.1C159.1 36.3667 158.033 33.3333 155.9 31.4C153.833 29.4667 150.733 28.5 146.6 28.5H130.5V53.5H156.5V58H130.5V85.5H147.6C151.4 85.5 154.567 84.6667 157.1 83C159.633 81.2667 161.733 78.3 163.4 74.1L166.1 75.1L163.2 83C162.333 85.4 161.3 87.1667 160.1 88.3C158.9 89.4333 157.033 90 154.5 90H117.5V37ZM191.161 28.5H184.061C180.328 28.5 177.461 29.4333 175.461 31.3C173.528 33.1667 172.561 36.2333 172.561 40.5H169.561V32C169.561 26.6667 172.394 24 178.061 24H225.061V28.5H204.161V90H191.161V28.5ZM234.98 37C234.98 33.6 234.514 31.1 233.58 29.5C232.647 27.8333 230.78 27 227.98 27H226.98V24H238.98C241.38 24 243.214 24.4 244.48 25.2C245.747 26 246.647 27.3333 247.18 29.2C247.714 31 247.98 33.6 247.98 37V53.5H274.98V24H287.98V77C287.98 80.4 288.447 82.9333 289.38 84.6C290.314 86.2 292.18 87 294.98 87H295.98V90H283.98C281.58 90 279.747 89.6333 278.48 88.9C277.214 88.1 276.314 86.8 275.78 85C275.247 83.1333 274.98 80.4667 274.98 77V58H247.98V90H234.98V37ZM320.653 28.5H313.553C309.82 28.5 306.953 29.4333 304.953 31.3C303.02 33.1667 302.053 36.2333 302.053 40.5H299.053V32C299.053 26.6667 301.886 24 307.553 24H354.553V28.5H333.653V90H320.653V28.5ZM371.873 90C369.473 90 367.639 89.6333 366.373 88.9C365.106 88.1 364.206 86.8 363.673 85C363.139 83.1333 362.873 80.4667 362.873 77V24H375.873V77C375.873 80.4 376.339 82.9333 377.273 84.6C378.206 86.2 380.073 87 382.873 87H383.873V90H371.873ZM421.458 92C414.591 92 408.658 90.5333 403.658 87.6C398.724 84.6 394.958 80.5333 392.358 75.4C389.758 70.2667 388.458 64.4667 388.458 58C388.458 51.3333 389.891 45.2667 392.758 39.8C395.624 34.2667 399.558 29.9333 404.558 26.8C409.624 23.6 415.258 22 421.458 22C427.324 22 432.224 22.7667 436.158 24.3C440.091 25.7667 443.091 27.7 445.158 30.1C446.358 31.6333 447.091 33.5333 447.358 35.8C447.624 38.0667 447.758 41.2333 447.758 45.3H444.758C443.491 39.1667 441.158 34.5 437.758 31.3C434.358 28.1 429.924 26.5 424.458 26.5C417.658 26.5 412.291 28.9 408.358 33.7C404.424 38.5 402.458 46.6 402.458 58C402.458 66.4667 404.258 73.5 407.858 79.1C411.458 84.7 416.991 87.5 424.458 87.5C429.124 87.5 433.391 86.2667 437.258 83.8C441.191 81.3333 444.358 77.8 446.758 73.2L450.258 75.9C447.058 81.5 443.191 85.6 438.658 88.2C434.124 90.7333 428.391 92 421.458 92ZM515.729 91C511.529 91 507.496 90.1667 503.629 88.5C499.829 86.7667 495.729 83.6 491.329 79L475.229 62.2V90H462.229L462.129 37C462.129 33.6 461.662 31.1 460.729 29.5C459.796 27.8333 457.929 27 455.129 27H454.129V24H466.129C468.462 24 470.262 24.4 471.529 25.2C472.862 26 473.796 27.3333 474.329 29.2C474.929 31.0667 475.229 33.6667 475.229 37V56L492.529 34.5C494.996 31.3 497.629 28.7667 500.429 26.9C503.296 24.9667 506.562 24 510.229 24H517.229V27.5C513.096 27.5 509.529 28.0333 506.529 29.1C503.596 30.1 501.062 31.9333 498.929 34.6L484.029 53L507.129 77C509.596 79.7333 512.362 82.1333 515.429 84.2C518.562 86.2 521.096 87.3333 523.029 87.6V90C521.029 90.6667 518.596 91 515.729 91ZM531.465 37C531.465 33.6 530.998 31.1 530.065 29.5C529.132 27.8333 527.265 27 524.465 27H523.465V24H567.565C573.232 24 576.065 26.6667 576.065 32V40.5H573.065C573.065 36.3667 571.998 33.3333 569.865 31.4C567.798 29.4667 564.698 28.5 560.565 28.5H544.465V53.5H570.465V58H544.465V85.5H561.565C565.365 85.5 568.532 84.6667 571.065 83C573.598 81.2667 575.698 78.3 577.365 74.1L580.065 75.1L577.165 83C576.298 85.4 575.265 87.1667 574.065 88.3C572.865 89.4333 570.998 90 568.465 90H531.465V37ZM605.126 28.5H598.026C594.292 28.5 591.426 29.4333 589.426 31.3C587.492 33.1667 586.526 36.2333 586.526 40.5H583.526V32C583.526 26.6667 586.359 24 592.026 24H639.026V28.5H618.126V90H605.126V28.5ZM666.745 91.7C663.012 91.7 659.412 91.2 655.945 90.2C652.479 89.2667 649.645 87.9 647.445 86.1C645.245 84.2333 644.145 82.1 644.145 79.7V68H646.945C647.945 74.8 650.045 79.7 653.245 82.7C656.445 85.7 660.912 87.2 666.645 87.2C670.512 87.2 673.579 86.3667 675.845 84.7C678.112 83.0333 679.245 80.6333 679.245 77.5C679.245 74.8333 678.412 72.5667 676.745 70.7C675.079 68.8333 672.479 66.8 668.945 64.6L656.645 57.2C652.179 54.6 648.979 51.9 647.045 49.1C645.179 46.3 644.245 43.0333 644.245 39.3C644.245 34.0333 646.245 29.8667 650.245 26.8C654.312 23.7333 659.779 22.2 666.645 22.2C670.379 22.2 673.979 22.7 677.445 23.7C680.912 24.6333 683.745 26.0333 685.945 27.9C688.145 29.7 689.245 31.8 689.245 34.2V45.9H686.445C685.312 39.1 683.212 34.2 680.145 31.2C677.079 28.2 672.945 26.7 667.745 26.7C664.145 26.7 661.279 27.5667 659.145 29.3C657.079 31.0333 656.045 33.4 656.045 36.4C656.045 39 656.845 41.1667 658.445 42.9C660.112 44.5667 662.779 46.4667 666.445 48.6L678.745 55.9C683.412 58.6333 686.745 61.3 688.745 63.9C690.812 66.4333 691.845 69.5 691.845 73.1C691.845 78.9 689.645 83.4667 685.245 86.8C680.912 90.0667 674.745 91.7 666.745 91.7Z" fill="black"/>
</svg>
